<mxfile host="app.diagrams.net" modified="2021-05-31T14:28:35.781Z" agent="5.0 (Windows NT 10.0; Win64; x64) AppleWebKit/537.36 (KHTML, like Gecko) Chrome/90.0.4430.212 Safari/537.36" etag="_sey0WVkjAEn8rxfQgeZ" version="14.7.3" type="github">
  <diagram id="R2lEEEUBdFMjLlhIrx00" name="Page-1">
    <mxGraphModel dx="595" dy="351" grid="1" gridSize="10" guides="1" tooltips="1" connect="1" arrows="1" fold="1" page="1" pageScale="1" pageWidth="850" pageHeight="1100" math="0" shadow="0" extFonts="Permanent Marker^https://fonts.googleapis.com/css?family=Permanent+Marker">
      <root>
        <mxCell id="0" />
        <mxCell id="1" parent="0" />
        <mxCell id="EHg9e_TxOWwhplUYxGUq-6" value="C++&amp;nbsp;&lt;br&gt;application" style="whiteSpace=wrap;html=1;aspect=fixed;" vertex="1" parent="1">
          <mxGeometry x="590" y="280" width="70" height="70" as="geometry" />
        </mxCell>
        <mxCell id="EHg9e_TxOWwhplUYxGUq-7" value="" style="endArrow=classic;html=1;" edge="1" parent="1">
          <mxGeometry width="50" height="50" relative="1" as="geometry">
            <mxPoint x="624.5" y="350" as="sourcePoint" />
            <mxPoint x="625" y="380" as="targetPoint" />
          </mxGeometry>
        </mxCell>
        <mxCell id="EHg9e_TxOWwhplUYxGUq-9" value="" style="endArrow=classic;html=1;" edge="1" parent="1">
          <mxGeometry width="50" height="50" relative="1" as="geometry">
            <mxPoint x="660" y="330" as="sourcePoint" />
            <mxPoint x="690" y="370" as="targetPoint" />
          </mxGeometry>
        </mxCell>
        <mxCell id="EHg9e_TxOWwhplUYxGUq-10" value="" style="endArrow=classic;html=1;exitX=0;exitY=0.75;exitDx=0;exitDy=0;" edge="1" parent="1" source="EHg9e_TxOWwhplUYxGUq-6" target="EHg9e_TxOWwhplUYxGUq-11">
          <mxGeometry width="50" height="50" relative="1" as="geometry">
            <mxPoint x="580" y="330" as="sourcePoint" />
            <mxPoint x="560" y="390" as="targetPoint" />
          </mxGeometry>
        </mxCell>
        <mxCell id="EHg9e_TxOWwhplUYxGUq-11" value="OS DESIGN" style="whiteSpace=wrap;html=1;aspect=fixed;" vertex="1" parent="1">
          <mxGeometry x="520" y="380" width="50" height="50" as="geometry" />
        </mxCell>
        <mxCell id="EHg9e_TxOWwhplUYxGUq-12" value="Cloud system&amp;nbsp;" style="whiteSpace=wrap;html=1;aspect=fixed;" vertex="1" parent="1">
          <mxGeometry x="680" y="370" width="60" height="60" as="geometry" />
        </mxCell>
        <mxCell id="EHg9e_TxOWwhplUYxGUq-13" value="MAKING&amp;nbsp;&lt;br&gt;BROWSERS" style="whiteSpace=wrap;html=1;aspect=fixed;" vertex="1" parent="1">
          <mxGeometry x="600" y="380" width="70" height="70" as="geometry" />
        </mxCell>
        <mxCell id="EHg9e_TxOWwhplUYxGUq-14" value="" style="endArrow=none;html=1;" edge="1" parent="1" target="EHg9e_TxOWwhplUYxGUq-16">
          <mxGeometry width="50" height="50" relative="1" as="geometry">
            <mxPoint x="544.5" y="480" as="sourcePoint" />
            <mxPoint x="544.5" y="430" as="targetPoint" />
            <Array as="points">
              <mxPoint x="540" y="480" />
              <mxPoint x="540" y="420" />
              <mxPoint x="540" y="430" />
            </Array>
          </mxGeometry>
        </mxCell>
        <mxCell id="EHg9e_TxOWwhplUYxGUq-16" value="" style="line;strokeWidth=4;html=1;perimeter=backbonePerimeter;points=[];outlineConnect=0;" vertex="1" parent="1">
          <mxGeometry x="480" y="470" width="160" height="10" as="geometry" />
        </mxCell>
        <mxCell id="EHg9e_TxOWwhplUYxGUq-17" value="" style="endArrow=classic;html=1;" edge="1" parent="1">
          <mxGeometry width="50" height="50" relative="1" as="geometry">
            <mxPoint x="490" y="470" as="sourcePoint" />
            <mxPoint x="490" y="510" as="targetPoint" />
          </mxGeometry>
        </mxCell>
        <mxCell id="EHg9e_TxOWwhplUYxGUq-18" value="" style="endArrow=classic;html=1;" edge="1" parent="1">
          <mxGeometry width="50" height="50" relative="1" as="geometry">
            <mxPoint x="634.5" y="470" as="sourcePoint" />
            <mxPoint x="634.5" y="510" as="targetPoint" />
          </mxGeometry>
        </mxCell>
        <mxCell id="EHg9e_TxOWwhplUYxGUq-19" value="" style="endArrow=classic;html=1;" edge="1" parent="1">
          <mxGeometry width="50" height="50" relative="1" as="geometry">
            <mxPoint x="569.5" y="480" as="sourcePoint" />
            <mxPoint x="569.5" y="520" as="targetPoint" />
          </mxGeometry>
        </mxCell>
        <mxCell id="EHg9e_TxOWwhplUYxGUq-20" value="MAC&amp;nbsp;" style="rounded=0;whiteSpace=wrap;html=1;" vertex="1" parent="1">
          <mxGeometry x="475" y="510" width="45" height="40" as="geometry" />
        </mxCell>
        <mxCell id="EHg9e_TxOWwhplUYxGUq-22" value="LINUX" style="rounded=0;whiteSpace=wrap;html=1;" vertex="1" parent="1">
          <mxGeometry x="615" y="510" width="45" height="40" as="geometry" />
        </mxCell>
        <mxCell id="EHg9e_TxOWwhplUYxGUq-23" value="WINDOWS" style="rounded=0;whiteSpace=wrap;html=1;" vertex="1" parent="1">
          <mxGeometry x="540" y="520" width="70" height="40" as="geometry" />
        </mxCell>
        <mxCell id="EHg9e_TxOWwhplUYxGUq-27" value="" style="endArrow=classic;html=1;exitX=1;exitY=1;exitDx=0;exitDy=0;" edge="1" parent="1" source="EHg9e_TxOWwhplUYxGUq-13">
          <mxGeometry width="50" height="50" relative="1" as="geometry">
            <mxPoint x="680" y="460" as="sourcePoint" />
            <mxPoint x="700" y="510" as="targetPoint" />
          </mxGeometry>
        </mxCell>
        <mxCell id="EHg9e_TxOWwhplUYxGUq-28" value="CHROMIUM&amp;nbsp;" style="rounded=0;whiteSpace=wrap;html=1;" vertex="1" parent="1">
          <mxGeometry x="690" y="510" width="80" height="50" as="geometry" />
        </mxCell>
        <mxCell id="EHg9e_TxOWwhplUYxGUq-29" value="PARENT CLASS&amp;nbsp;" style="text;html=1;align=center;verticalAlign=middle;resizable=0;points=[];autosize=1;strokeColor=none;" vertex="1" parent="1">
          <mxGeometry x="670" y="310" width="110" height="20" as="geometry" />
        </mxCell>
        <mxCell id="EHg9e_TxOWwhplUYxGUq-30" value="LEVEL 0" style="text;html=1;align=center;verticalAlign=middle;resizable=0;points=[];autosize=1;strokeColor=none;" vertex="1" parent="1">
          <mxGeometry x="530" y="300" width="60" height="20" as="geometry" />
        </mxCell>
        <mxCell id="EHg9e_TxOWwhplUYxGUq-31" value="CHILD CLASS&lt;br&gt;LEVEL 1" style="text;html=1;align=center;verticalAlign=middle;resizable=0;points=[];autosize=1;strokeColor=none;" vertex="1" parent="1">
          <mxGeometry x="760" y="385" width="90" height="30" as="geometry" />
        </mxCell>
        <mxCell id="EHg9e_TxOWwhplUYxGUq-32" value="CHILD CLASS&amp;nbsp;&lt;br&gt;LEVEL 2" style="text;html=1;align=center;verticalAlign=middle;resizable=0;points=[];autosize=1;strokeColor=none;" vertex="1" parent="1">
          <mxGeometry x="715" y="460" width="100" height="30" as="geometry" />
        </mxCell>
      </root>
    </mxGraphModel>
  </diagram>
</mxfile>
